<mxfile host="app.diagrams.net" modified="2024-07-03T17:19:17.704Z" agent="Mozilla/5.0 (X11; Linux x86_64) AppleWebKit/537.36 (KHTML, like Gecko) Chrome/126.0.0.0 Safari/537.36" version="24.6.4" etag="PQK5mdstJYIHhPKcgSEh" type="github">
  <diagram name="Page-1" id="w3dF1QnZ8MRJQI7KbK_n">
    <mxGraphModel>
      <root>
        <mxCell id="0" />
        <mxCell id="1" parent="0" />
      </root>
    </mxGraphModel>
  </diagram>
</mxfile>
